<svg width="1360" height="613" viewBox="0 0 1360 613" fill="none" xmlns="http://www.w3.org/2000/svg">
    <path
        d="M226 246H20C8.9543 246 0 254.954 0 266V593C0 604.046 8.95432 613 20 613H1340C1351.05 613 1360 604.046 1360 593V20C1360 8.95431 1351.05 0 1340 0H266C254.954 0 246 8.9543 246 20V226C246 237.046 237.046 246 226 246Z"
        fill="#1916B0" />
    <path fill-rule="evenodd" clip-rule="evenodd"
        d="M0 153.926V0L154.376 0.0138492C179.721 0.625211 200 21.3832 200 46.8037C200 72.2244 179.721 92.9823 154.376 93.5938L153.109 93.6268H93.548L93.534 154.505C92.918 179.862 72.175 200.149 46.7741 200.149C21.3731 200.149 0.630075 179.862 0 153.926ZM200 153.744C200 179.291 179.291 200 153.744 200C128.198 200 107.489 179.291 107.489 153.744C107.489 128.198 128.198 107.489 153.744 107.489C179.291 107.489 200 128.198 200 153.744Z"
        fill="#1916B0" />
</svg>